:SAMPLES-PER-SECOND 30
:FULLY-SPECIFIED
:DEGREES
228
root  6.385377448 41.13444531 2.145475478 1.265991211 -57.40299988 2.888977051
lowerback  11.82369995 2.587850094 -4.56196022
upperback  4.461629868 2.790509939 -0.3057579994
thorax  -2.151949883 1.313599944 1.869650006
lowerneck  -5.039549828 9.76527977 1.55084002
upperneck  2.82446003 12.95479965 -0.7705230117
head  1.884580016 6.460790157 -0.07441990077
lclavicle  0 -9.442270133e-015 7.951389973e-016
lhumerus  1.18385005 -13.64560032 79.24790192
lradius  2.651139069e-031 -2.332446286e-031 138.6589966
lwrist  0 -1.765562519e-031 5.823699951
lhand  -1.496451383e-031 -27.76390076 20.11240005
lfingers  90 7.125020027 -90
lthumb  89.89689403 5.08795885 91.16245106
rclavicle  0 -9.442270133e-015 7.951389973e-016
rhumerus  10.56439972 24.04520035 -76.17449951
rradius  -2.603460395e-031 2.385547738e-031 137.5010071
rwrist  1.412450015e-030 -1.765562519e-031 -11.37390041
rhand  -7.920061211e-032 -33.2840004 9.303460121
rfingers  -90 -7.125020027 -90
rthumb  -92.93752616 -24.25625642 -97.11982154
rfemur  -24.77879906 12.27750015 7.560810089
rtibia  -0 0 50.73770142
rfoot  -8.976946953e-032 -10.45839977 -3.896130085
rtoes  5.373923086 19.29304026 -105.8922705
lfemur  -24.60589981 -0.4540069997 -10.73859978
ltibia  -0 0 48.45280075
lfoot  4.441299743e-032 -6.366919994 4.247759819
ltoes  -4.250644065 -19.5611806 -102.515957
229
root  6.373910829 41.13755414 2.204368809 1.255981445 -58.22000122 3.236999512
lowerback  11.67739964 2.584589958 -4.636539936
upperback  4.482170105 2.79031992 -0.1753180027
thorax  -2.060549974 1.310160041 2.053070068
lowerneck  -5.59250021 9.962209702 1.175400019
upperneck  3.254650116 13.23509979 -0.6495140195
head  2.090719938 6.595019817 0.07523170114
lclavicle  0 -9.442270133e-015 7.951389973e-016
lhumerus  0.7914429903 -13.43420029 79.7397995
lradius  2.651424165e-031 -2.332122195e-031 138.6660004
lwrist  -7.062250077e-031 -1.765562519e-031 5.564879894
lhand  -1.496451383e-031 -27.76390076 20.11240005
lfingers  90 7.125020027 -90
lthumb  89.89689403 5.08795885 91.16245106
rclavicle  0 -9.442270133e-015 7.951389973e-016
rhumerus  10.51739979 24.71559906 -76.06729889
rradius  -2.594281329e-031 2.395526753e-031 137.2810059
rwrist  1.412450015e-030 -1.765562519e-031 -11.11200047
rhand  -7.920061211e-032 -33.2840004 9.303460121
rfingers  -90 -7.125020027 -90
rthumb  -92.93752616 -24.25625642 -97.11982154
rfemur  -24.36450005 12.34430027 7.905320168
rtibia  -0 0 49.8810997
rfoot  -4.513648998e-032 -12.06750011 -5.659060001
rtoes  5.373923086 19.29304026 -105.8922705
lfemur  -23.7371006 -0.6423709989 -11.58780003
ltibia  -0 0 47.07559967
lfoot  4.452164242e-032 -7.5166502 4.413440228
ltoes  -4.250644065 -19.5611806 -102.515957
230
root  6.349489257 41.14311098 2.27528895 1.15802002 -59.04299927 3.659973145
lowerback  11.34939957 2.557149887 -4.410960197
upperback  4.474299908 2.793169975 -0.3209100068
thorax  -1.873950005 1.311169982 1.78745997
lowerneck  -5.87030983 10.16170025 1.376739979
upperneck  3.558579922 13.48719978 -0.6983159781
head  2.262229919 6.718649864 0.06839709729
lclavicle  0 -9.442270133e-015 7.951389973e-016
lhumerus  0.6969419718 -13.18459988 79.56790161
lradius  2.653011035e-031 -2.33031682e-031 138.7050018
lwrist  -7.062250077e-031 -3.531125038e-031 5.935850143
lhand  -1.496451383e-031 -27.76390076 20.11240005
lfingers  90 7.125020027 -90
lthumb  89.89689403 5.08795885 91.16245106
rclavicle  0 -9.442270133e-015 7.951389973e-016
rhumerus  10.19019985 25.12890053 -76.13500214
rradius  -2.584811597e-031 2.405741683e-031 137.0549927
rwrist  1.412450015e-030 -3.531125038e-031 -10.28380013
rhand  -7.920061211e-032 -33.2840004 9.303460121
rfingers  -90 -7.125020027 -90
rthumb  -92.93752616 -24.25625642 -97.11982154
rfemur  -23.88080025 12.3732996 8.116609573
rtibia  -0 0 48.97480011
rfoot  -0 -12.99260044 -9.56978035
rtoes  5.373923086 19.29304026 -105.8922705
lfemur  -22.75889969 -0.8598870039 -12.50500011
ltibia  -0 0 45.80519867
lfoot  4.47265541e-032 -9.296770096 5.48251009
ltoes  -4.250644065 -19.5611806 -102.515957
231
root  6.316288625 41.13933233 2.35502213 0.9819946289 -59.83999634 4.148986816
lowerback  11.03129959 2.532850027 -4.256770134
upperback  4.328299999 2.791970015 -0.4538910091
thorax  -1.839830041 1.316210032 1.572239995
lowerneck  -5.792490005 10.32149982 1.771999955
upperneck  3.808969975 13.6850996 -0.9377840161
head  2.383239985 6.814539909 -0.04917690158
lclavicle  0 -9.442270133e-015 7.951389973e-016
lhumerus  0.3593069911 -13.01869965 79.48590088
lradius  2.658819037e-031 -2.32368788e-031 138.8480072
lwrist  0 -0 6.245629787
lhand  -1.496451383e-031 -27.76390076 20.11240005
lfingers  90 7.125020027 -90
lthumb  89.89689403 5.08795885 91.16245106
rclavicle  0 -9.442270133e-015 7.951389973e-016
rhumerus  9.546369553 25.58279991 -76.07309723
rradius  -2.576398372e-031 2.414749566e-031 136.8549957
rwrist  7.062250077e-031 -3.531125038e-031 -8.94258976
rhand  -7.920061211e-032 -33.2840004 9.303460121
rfingers  -90 -7.125020027 -90
rthumb  -92.93752616 -24.25625642 -97.11982154
rfemur  -23.38059998 12.39350033 8.19756031
rtibia  -0 0 47.95930099
rfoot  -0 -13.57110023 -12.32450008
rtoes  5.373923086 19.29304026 -105.8922705
lfemur  -21.7677002 -1.037580013 -13.38309956
ltibia  -0 0 44.60329819
lfoot  -0 -11.35219955 11.2191
ltoes  -4.250644065 -19.5611806 -102.515957
232
root  6.282488755 41.12044507 2.432111117 1.059020996 -60.57099915 4.271972656
lowerback  10.78979969 2.461679935 -3.987449884
upperback  4.166600227 2.738709927 -0.4865579903
thorax  -1.86037004 1.296749949 1.400179982
lowerneck  -5.663720131 10.52120018 2.013499975
upperneck  3.99593997 13.94649982 -1.108620048
head  2.459189892 6.942689896 -0.1256269962
lclavicle  0 -9.442270133e-015 7.951389973e-016
lhumerus  -0.1600520015 -12.96049976 79.68379974
lradius  2.668811392e-031 -2.312204531e-031 139.0950012
lwrist  -1.412450015e-030 -0 6.221920013
lhand  -1.496451383e-031 -27.76390076 20.11240005
lfingers  90 7.125020027 -90
lthumb  89.89689403 5.08795885 91.16245106
rclavicle  0 -9.442270133e-015 7.951389973e-016
rhumerus  9.062580109 25.95260048 -76.10369873
rradius  -2.582879731e-031 2.407815676e-031 137.0090027
rwrist  7.062250077e-031 -0 -9.145119667
rhand  -7.920061211e-032 -33.2840004 9.303460121
rfingers  -90 -7.125020027 -90
rthumb  -92.93752616 -24.25625642 -97.11982154
rfemur  -22.8383007 12.3664999 8.416319847
rtibia  -0 0 46.84209824
rfoot  -0 -15.27260017 -11.76109982
rtoes  5.373923086 19.29304026 -105.8922705
lfemur  -20.84670067 -1.190760016 -13.91059971
ltibia  -0 0 43.45909882
lfoot  -0 -12.8142004 15.24260044
ltoes  -4.250644065 -19.5611806 -102.515957
